<svg width="52" height="36" viewBox="0 0 52 36" fill="none" xmlns="http://www.w3.org/2000/svg">
<path d="M11.887 13.3402C14.1026 13.3402 16.2684 13.9972 18.1106 15.228C19.9527 16.4589 21.3885 18.2085 22.2364 20.2554C23.0842 22.3023 23.3061 24.5546 22.8738 26.7276C22.4416 28.9006 21.3747 30.8966 19.8081 32.4632C18.2414 34.0299 16.2454 35.0968 14.0724 35.529C11.8995 35.9612 9.64711 35.7394 7.6002 34.8915C5.5533 34.0437 3.80378 32.6079 2.57288 30.7657C1.34199 28.9236 0.684998 26.7578 0.684998 24.5422L0.633789 22.9419C0.633789 17 2.99421 11.3014 7.19579 7.09984C11.3974 2.89826 17.0959 0.537842 23.0379 0.537842V6.939C20.9354 6.93335 18.8527 7.34455 16.9101 8.14882C14.9676 8.95309 13.2037 10.1345 11.7206 11.6247C11.1442 12.2 10.6124 12.8184 10.1299 13.4746C10.7028 13.385 11.2885 13.337 11.8838 13.337L11.887 13.3402ZM40.6923 13.3402C42.9078 13.3402 45.0736 13.9972 46.9158 15.228C48.7579 16.4589 50.1937 18.2085 51.0416 20.2554C51.8895 22.3023 52.1113 24.5546 51.6791 26.7276C51.2468 28.9006 50.1799 30.8966 48.6133 32.4632C47.0467 34.0299 45.0507 35.0968 42.8777 35.529C40.7047 35.9612 38.4523 35.7394 36.4054 34.8915C34.3585 34.0437 32.609 32.6079 31.3781 30.7657C30.1472 28.9236 29.4902 26.7578 29.4902 24.5422L29.439 22.9419C29.439 17 31.7994 11.3014 36.001 7.09984C40.2026 2.89826 45.9012 0.537842 51.8431 0.537842V6.939C49.7406 6.93335 47.6579 7.34455 45.7154 8.14882C43.7728 8.95309 42.009 10.1345 40.5258 11.6247C39.9494 12.2 39.4176 12.8184 38.9352 13.4746C39.5081 13.385 40.0938 13.337 40.6923 13.337V13.3402Z" fill="black" fill-opacity="0.8"/>
</svg>
